<svg xmlns="http://www.w3.org/2000/svg" viewBox="0 0 32 32" fill="none">
  <defs>
    <linearGradient id="bookGrad" x1="0%" y1="0%" x2="100%" y2="100%">
      <stop offset="0%" style="stop-color:#3b82f6"/>
      <stop offset="100%" style="stop-color:#1d4ed8"/>
    </linearGradient>
  </defs>
  <!-- 书本左页 -->
  <path d="M4 6C4 5 5 4 6 4C10 4 14 5 16 7V27C14 25 10 24 6 24C5 24 4 23 4 22V6Z" fill="url(#bookGrad)"/>
  <!-- 书本右页 -->
  <path d="M28 6C28 5 27 4 26 4C22 4 18 5 16 7V27C18 25 22 24 26 24C27 24 28 23 28 22V6Z" fill="url(#bookGrad)" opacity="0.8"/>
  <!-- 书脊 -->
  <path d="M15 7V27H17V7H15Z" fill="#1e40af"/>
  <!-- 页面线条 -->
  <path d="M7 10H13M7 14H12M7 18H11" stroke="white" stroke-width="1.5" stroke-linecap="round" opacity="0.6"/>
  <path d="M19 10H25M20 14H25M21 18H25" stroke="white" stroke-width="1.5" stroke-linecap="round" opacity="0.6"/>
</svg>
